<svg width="60" height="63" viewBox="0 0 60 63" fill="none" xmlns="http://www.w3.org/2000/svg">
<rect width="60" height="62.8571" rx="14" fill="#F3F8EB"/>
<path d="M30.0003 44.7619H42.7276M36.364 19.063C36.9266 18.4433 37.6896 18.0952 38.4852 18.0952C38.8791 18.0952 39.2692 18.1807 39.6332 18.3467C39.9971 18.5128 40.3278 18.7562 40.6064 19.063C40.885 19.3698 41.1059 19.734 41.2567 20.1348C41.4074 20.5357 41.485 20.9653 41.485 21.3992C41.485 21.8331 41.4074 22.2627 41.2567 22.6636C41.1059 23.0645 40.885 23.4287 40.6064 23.7355L22.9296 43.2044L17.2731 44.7619L18.6872 38.5319L36.364 19.063Z" stroke="#83AD32" stroke-width="3" stroke-linecap="round" stroke-linejoin="round"/>
</svg>
