<svg width="60" height="61" viewBox="0 0 60 61" fill="none" xmlns="http://www.w3.org/2000/svg">
<g id="Group 1336522543">
<rect id="Rectangle 1458" y="0.857147" width="60" height="60" rx="14" fill="#F3F8EB"/>
<path id="Vector" d="M39.0909 17.2208C37.8854 17.2208 36.7292 17.6997 35.8768 18.5521C35.0244 19.4046 34.5455 20.5607 34.5455 21.7662V39.9481C34.5455 41.1536 35.0244 42.3098 35.8768 43.1622C36.7292 44.0146 37.8854 44.4935 39.0909 44.4935C40.2964 44.4935 41.4526 44.0146 42.305 43.1622C43.1575 42.3098 43.6364 41.1536 43.6364 39.9481C43.6364 38.7425 43.1575 37.5864 42.305 36.7339C41.4526 35.8815 40.2964 35.4026 39.0909 35.4026H20.9091C19.7036 35.4026 18.5474 35.8815 17.695 36.7339C16.8425 37.5864 16.3636 38.7425 16.3636 39.9481C16.3636 41.1536 16.8425 42.3098 17.695 43.1622C18.5474 44.0146 19.7036 44.4935 20.9091 44.4935C22.1146 44.4935 23.2708 44.0146 24.1232 43.1622C24.9757 42.3098 25.4546 41.1536 25.4546 39.9481V21.7662C25.4546 20.5607 24.9757 19.4046 24.1232 18.5521C23.2708 17.6997 22.1146 17.2208 20.9091 17.2208C19.7036 17.2208 18.5474 17.6997 17.695 18.5521C16.8425 19.4046 16.3636 20.5607 16.3636 21.7662C16.3636 22.9718 16.8425 24.1279 17.695 24.9804C18.5474 25.8328 19.7036 26.3117 20.9091 26.3117H39.0909C40.2964 26.3117 41.4526 25.8328 42.305 24.9804C43.1575 24.1279 43.6364 22.9718 43.6364 21.7662C43.6364 20.5607 43.1575 19.4046 42.305 18.5521C41.4526 17.6997 40.2964 17.2208 39.0909 17.2208Z" stroke="#83AD32" stroke-width="3" stroke-linecap="round" stroke-linejoin="round"/>
</g>
</svg>
