<svg width="32" height="32" viewBox="0 0 32 32" fill="none" xmlns="http://www.w3.org/2000/svg">
<g id="Group 7860">
<path id="Rectangle 1441" d="M0 5.12C0 2.2923 2.2923 0 5.12 0H26.88C29.7077 0 32 2.2923 32 5.12V26.88C32 29.7077 29.7077 32 26.88 32H5.12C2.2923 32 0 29.7077 0 26.88V5.12Z" fill="white"/>
<g id="Vector">
<path d="M23.68 23.6801V21.9023C23.68 20.9593 23.2922 20.0549 22.6021 19.3881C21.912 18.7213 20.976 18.3467 20 18.3467H12.64C11.664 18.3467 10.7279 18.7213 10.0378 19.3881C9.34767 20.0549 8.95996 20.9593 8.95996 21.9023V23.6801" fill="white"/>
<path d="M16.32 14.7912C18.3524 14.7912 20 13.1993 20 11.2356C20 9.27193 18.3524 7.68005 16.32 7.68005C14.2876 7.68005 12.64 9.27193 12.64 11.2356C12.64 13.1993 14.2876 14.7912 16.32 14.7912Z" fill="white"/>
</g>
<path id="Vector (Stroke)" fill-rule="evenodd" clip-rule="evenodd" d="M16.3201 8.32004C14.6202 8.32004 13.2801 9.64595 13.2801 11.2356C13.2801 12.8252 14.6202 14.1512 16.3201 14.1512C18.0199 14.1512 19.3601 12.8252 19.3601 11.2356C19.3601 9.64595 18.0199 8.32004 16.3201 8.32004ZM12.0001 11.2356C12.0001 8.89788 13.9551 7.04004 16.3201 7.04004C18.685 7.04004 20.6401 8.89788 20.6401 11.2356C20.6401 13.5733 18.685 15.4312 16.3201 15.4312C13.9551 15.4312 12.0001 13.5733 12.0001 11.2356ZM9.59322 18.9278C10.4049 18.1436 11.5013 17.7067 12.6401 17.7067H20.0001C21.1388 17.7067 22.2352 18.1436 23.0469 18.9278C23.8594 19.7128 24.3201 20.7823 24.3201 21.9023V23.68C24.3201 24.0335 24.0335 24.32 23.6801 24.32C23.3266 24.32 23.0401 24.0335 23.0401 23.68V21.9023C23.0401 21.1363 22.7253 20.397 22.1575 19.8484C21.589 19.299 20.8133 18.9867 20.0001 18.9867H12.6401C11.8268 18.9867 11.0512 19.299 10.4826 19.8484C9.91481 20.397 9.60007 21.1363 9.60007 21.9023V23.68C9.60007 24.0335 9.31353 24.32 8.96007 24.32C8.60661 24.32 8.32007 24.0335 8.32007 23.68V21.9023C8.32007 20.7823 8.78075 19.7128 9.59322 18.9278Z" fill="#83AD32"/>
</g>
</svg>
