<svg width="32" height="32" viewBox="0 0 32 32" fill="none" xmlns="http://www.w3.org/2000/svg">
<g id="Group 1336522547">
<rect id="Rectangle 1440" width="32" height="32" rx="3" fill="white"/>
<path id="Vector" d="M24.3201 15.9415L16.7556 23.1905C15.8289 24.0785 14.5721 24.5774 13.2615 24.5774C11.951 24.5774 10.6941 24.0785 9.76738 23.1905C8.84068 22.3024 8.32007 21.098 8.32007 19.842C8.32007 18.5861 8.84068 17.3817 9.76738 16.4936L17.3318 9.24459C17.9496 8.65255 18.7875 8.31995 19.6612 8.31995C20.5349 8.31995 21.3729 8.65255 21.9907 9.24459C22.6085 9.83663 22.9555 10.6396 22.9555 11.4769C22.9555 12.3141 22.6085 13.1171 21.9907 13.7092L14.418 20.9582C14.1091 21.2542 13.6901 21.4205 13.2533 21.4205C12.8164 21.4205 12.3975 21.2542 12.0886 20.9582C11.7797 20.6622 11.6061 20.2607 11.6061 19.842C11.6061 19.4234 11.7797 19.0219 12.0886 18.7259L19.0768 12.0369" stroke="#83AD32" stroke-width="1.5" stroke-linecap="round" stroke-linejoin="round"/>
</g>
</svg>
