<svg width="32" height="32" viewBox="0 0 32 32" fill="none" xmlns="http://www.w3.org/2000/svg">
<g id="Group 1336522548">
<rect id="Rectangle 1439" width="32" height="32" rx="3" fill="white"/>
<path id="Vector (Stroke)" fill-rule="evenodd" clip-rule="evenodd" d="M9.86941 8.96005C9.63971 8.96005 9.41193 9.05605 9.23837 9.23925C9.0637 9.42363 8.95993 9.68074 8.95993 9.95561V21.4045C8.95993 21.6794 9.0637 21.9365 9.23837 22.1209C9.41193 22.3041 9.63971 22.4001 9.86941 22.4001H20.7157C20.9454 22.4001 21.1732 22.3041 21.3468 22.1209C21.5214 21.9365 21.6252 21.6794 21.6252 21.4045V15.6801C21.6252 15.3266 21.9117 15.0401 22.2652 15.0401C22.6187 15.0401 22.9052 15.3266 22.9052 15.6801V21.4045C22.9052 21.9972 22.6825 22.5721 22.276 23.0012C21.8684 23.4314 21.3079 23.6801 20.7157 23.6801H9.86941C9.27721 23.6801 8.71676 23.4314 8.30915 23.0012C7.90266 22.5721 7.67993 21.9972 7.67993 21.4045V9.95561C7.67993 9.36292 7.90266 8.78802 8.30915 8.35894C8.71676 7.92869 9.27721 7.68005 9.86941 7.68005H18.3915C18.745 7.68005 19.0315 7.96659 19.0315 8.32005C19.0315 8.67352 18.745 8.96005 18.3915 8.96005H9.86941ZM23.4801 8.67322C23.7367 8.91631 23.7476 9.32139 23.5045 9.57799L15.7572 17.7558C15.6363 17.8833 15.4683 17.9556 15.2926 17.9556C15.1168 17.9556 14.9488 17.8833 14.828 17.7558L12.5037 15.3024C12.2607 15.0458 12.2716 14.6408 12.5282 14.3977C12.7848 14.1546 13.1899 14.1655 13.433 14.4221L15.2926 16.385L22.5753 8.69767C22.8184 8.44108 23.2235 8.43013 23.4801 8.67322Z" fill="#83AD32"/>
</g>
</svg>
