<svg width="17" height="23" viewBox="0 0 17 23" fill="none" xmlns="http://www.w3.org/2000/svg">
<g id="Attachment">
<g id="Vector">
<path d="M10.6207 2.73833C11.2339 2.43353 11.9545 2.34284 12.6678 2.53396C14.22 2.94987 15.1411 4.54534 14.7252 6.09753L12.3584 14.9305C11.9425 16.4827 10.347 17.4039 8.79483 16.988C7.24263 16.572 6.32149 14.9766 6.7374 13.4244L7.68412 9.89119C7.79107 9.49205 7.5542 9.08179 7.15507 8.97484C6.75593 8.86789 6.34567 9.10476 6.23872 9.5039L5.292 13.0371C4.6622 15.3876 6.05707 17.8036 8.40754 18.4334C10.758 19.0632 13.174 17.6683 13.8038 15.3178L16.1706 6.48483C16.8004 4.13436 15.4055 1.71837 13.0551 1.08856C11.9762 0.799486 10.8818 0.937488 9.95463 1.39837C9.38613 1.68098 8.87933 2.08543 8.47577 2.58855C8.21723 2.91089 8.26893 3.38179 8.59127 3.64033C8.9136 3.89888 9.3845 3.84717 9.64305 3.52484C9.90898 3.1933 10.244 2.92562 10.6207 2.73833Z" fill="black"/>
<path d="M4.15092 8.94447C4.56683 7.39227 6.16229 6.47113 7.71449 6.88704C9.26669 7.30295 10.1878 8.89842 9.77192 10.4506L8.8252 13.9838C8.71825 14.3829 8.95512 14.7932 9.35425 14.9002C9.75339 15.0071 10.1637 14.7702 10.2706 14.3711L11.2173 10.8379C11.8471 8.48744 10.4523 6.07145 8.10178 5.44164C5.75132 4.81184 3.33533 6.20671 2.70552 8.55718L0.338725 17.3902C-0.291081 19.7406 1.10379 22.1566 3.45426 22.7864C4.53311 23.0755 5.62756 22.9375 6.55469 22.4766C7.12319 22.194 7.62999 21.7896 8.03355 21.2864C8.29209 20.9641 8.24038 20.4932 7.91805 20.2347C7.59571 19.9761 7.12481 20.0278 6.86626 20.3502C6.60034 20.6817 6.26535 20.9494 5.88859 21.1367C5.27544 21.4415 4.55482 21.5322 3.84155 21.341C2.28936 20.9251 1.36822 19.3297 1.78412 17.7775L4.15092 8.94447Z" fill="black"/>
</g>
</g>
</svg>
