<svg width="50" height="50" viewBox="0 0 50 50" fill="none" xmlns="http://www.w3.org/2000/svg">
<g id="Group 7859">
<path id="Rectangle 1441" d="M0 8C0 3.58172 3.58172 0 8 0H42C46.4183 0 50 3.58172 50 8V42C50 46.4183 46.4183 50 42 50H8C3.58172 50 0 46.4183 0 42V8Z" fill="white"/>
<g id="Vector">
<path d="M37 37V34.2222C37 32.7488 36.3942 31.3357 35.3159 30.2939C34.2375 29.252 32.775 28.6667 31.25 28.6667H19.75C18.225 28.6667 16.7625 29.252 15.6841 30.2939C14.6058 31.3357 14 32.7488 14 34.2222V37" fill="white"/>
<path d="M25.5 23.1111C28.6756 23.1111 31.25 20.6238 31.25 17.5556C31.25 14.4873 28.6756 12 25.5 12C22.3244 12 19.75 14.4873 19.75 17.5556C19.75 20.6238 22.3244 23.1111 25.5 23.1111Z" fill="white"/>
</g>
<path id="Vector (Stroke)" fill-rule="evenodd" clip-rule="evenodd" d="M25.5 13C22.8439 13 20.75 15.0717 20.75 17.5556C20.75 20.0394 22.8439 22.1111 25.5 22.1111C28.1561 22.1111 30.25 20.0394 30.25 17.5556C30.25 15.0717 28.1561 13 25.5 13ZM18.75 17.5556C18.75 13.9029 21.8048 11 25.5 11C29.1952 11 32.25 13.9029 32.25 17.5556C32.25 21.2082 29.1952 24.1111 25.5 24.1111C21.8048 24.1111 18.75 21.2082 18.75 17.5556ZM14.9893 29.5747C16.2576 28.3493 17.9707 27.6667 19.75 27.6667H31.25C33.0293 27.6667 34.7424 28.3493 36.0107 29.5747C37.2802 30.8012 38 32.4723 38 34.2222V37C38 37.5523 37.5523 38 37 38C36.4477 38 36 37.5523 36 37V34.2222C36 33.0253 35.5082 31.8702 34.621 31.013C33.7327 30.1547 32.5207 29.6667 31.25 29.6667H19.75C18.4793 29.6667 17.2673 30.1547 16.379 31.013C15.4918 31.8702 15 33.0253 15 34.2222V37C15 37.5523 14.5523 38 14 38C13.4477 38 13 37.5523 13 37V34.2222C13 32.4723 13.7198 30.8012 14.9893 29.5747Z" fill="#83AD32"/>
</g>
</svg>
