<svg width="32" height="32" viewBox="0 0 32 32" fill="none" xmlns="http://www.w3.org/2000/svg">
<g id="Group 1336522541">
<path id="Rectangle 1457" d="M0 7.12727C0 3.19099 3.34294 0 7.46667 0H24.5333C28.6571 0 32 3.19099 32 7.12727V24.8727C32 28.809 28.6571 32 24.5333 32H7.46667C3.34294 32 0 28.809 0 24.8727V7.12727Z" fill="#F3F8EB"/>
<path id="Vector (Stroke)" fill-rule="evenodd" clip-rule="evenodd" d="M20.5253 9.97649C20.3394 9.97649 20.1435 10.0535 19.9862 10.2188L10.7 19.9817L10.2881 21.7138L11.7927 21.3183L21.0643 11.5709C21.1427 11.4885 21.2085 11.3867 21.2546 11.2698C21.3007 11.1528 21.3252 11.0252 21.3252 10.8949C21.3252 10.7646 21.3007 10.637 21.2546 10.52C21.2085 10.4031 21.1427 10.3013 21.0643 10.2188C20.986 10.1365 20.8973 10.0756 20.8055 10.0356C20.7139 9.99578 20.619 9.97649 20.5253 9.97649ZM18.8017 9.19219C19.2444 8.72668 19.8625 8.44922 20.5253 8.44922C20.8517 8.44922 21.1729 8.51694 21.4696 8.64614C21.766 8.77522 22.03 8.96211 22.2489 9.19219C22.4676 9.42212 22.6375 9.69119 22.7522 9.98239C22.8669 10.2735 22.9252 10.5834 22.9252 10.8949C22.9252 11.2064 22.8669 11.5162 22.7522 11.8074C22.6375 12.0986 22.4676 12.3676 22.2489 12.5976L12.8212 22.509C12.7193 22.6162 12.5875 22.6935 12.4413 22.7319L9.4245 23.5249C9.15331 23.5961 8.86282 23.5262 8.65945 23.3407C8.45608 23.1552 8.36971 22.8814 8.43197 22.6196L9.18618 19.4479C9.21669 19.3196 9.2814 19.201 9.37405 19.1036L18.8017 9.19219ZM15.2 22.7886C15.2 22.3669 15.5582 22.025 16 22.025H22.7879C23.2297 22.025 23.5879 22.3669 23.5879 22.7886C23.5879 23.2104 23.2297 23.5522 22.7879 23.5522H16C15.5582 23.5522 15.2 23.2104 15.2 22.7886Z" fill="#83AD32"/>
</g>
</svg>
