<svg width="32" height="32" viewBox="0 0 32 32" fill="none" xmlns="http://www.w3.org/2000/svg">
<g id="Group 1336522543">
<path id="Rectangle 1458" d="M0 7.46667C0 3.34294 3.34294 0 7.46667 0H24.5333C28.6571 0 32 3.34294 32 7.46667V24.5333C32 28.6571 28.6571 32 24.5333 32H7.46667C3.34294 32 0 28.6571 0 24.5333V7.46667Z" fill="#F3F8EB"/>
<path id="Vector (Stroke)" fill-rule="evenodd" clip-rule="evenodd" d="M8.87136 8.87136C9.47602 8.2667 10.2961 7.927 11.1512 7.927C12.0064 7.927 12.8265 8.2667 13.4311 8.87136C14.0358 9.47602 14.3755 10.2961 14.3755 11.1512V12.7755H17.624V11.1512C17.624 10.2961 17.9637 9.47602 18.5683 8.87136C19.173 8.2667 19.9931 7.927 20.8482 7.927C21.7033 7.927 22.5234 8.2667 23.1281 8.87136C23.7328 9.47602 24.0725 10.2961 24.0725 11.1512C24.0725 12.0064 23.7328 12.8265 23.1281 13.4311C22.5234 14.0358 21.7033 14.3755 20.8482 14.3755H19.224V17.624H20.8482C21.7033 17.624 22.5234 17.9637 23.1281 18.5683C23.7328 19.173 24.0725 19.9931 24.0725 20.8482C24.0725 21.7033 23.7328 22.5234 23.1281 23.1281C22.5234 23.7328 21.7033 24.0725 20.8482 24.0725C19.9931 24.0725 19.173 23.7328 18.5683 23.1281C17.9637 22.5234 17.624 21.7033 17.624 20.8482V19.224H14.3755V20.8482C14.3755 21.7033 14.0358 22.5234 13.4311 23.1281C12.8265 23.7328 12.0064 24.0725 11.1512 24.0725C10.2961 24.0725 9.47602 23.7328 8.87136 23.1281C8.2667 22.5234 7.927 21.7033 7.927 20.8482C7.927 19.9931 8.2667 19.173 8.87136 18.5683C9.47602 17.9637 10.2961 17.624 11.1512 17.624H12.7755V14.3755H11.1512C10.2961 14.3755 9.47602 14.0358 8.87136 13.4311C8.2667 12.8265 7.927 12.0064 7.927 11.1512C7.927 10.2961 8.2667 9.47602 8.87136 8.87136ZM12.7755 12.7755V11.1512C12.7755 10.7205 12.6044 10.3073 12.2998 10.0027C11.9952 9.69813 11.582 9.527 11.1512 9.527C10.7205 9.527 10.3073 9.69813 10.0027 10.0027C9.69813 10.3073 9.527 10.7205 9.527 11.1512C9.527 11.582 9.69813 11.9952 10.0027 12.2998C10.3073 12.6044 10.7205 12.7755 11.1512 12.7755H12.7755ZM14.3755 14.3755V17.624H17.624V14.3755H14.3755ZM12.7755 19.224H11.1512C10.7205 19.224 10.3073 19.3951 10.0027 19.6997C9.69813 20.0043 9.527 20.4174 9.527 20.8482C9.527 21.279 9.69813 21.6921 10.0027 21.9967C10.3073 22.3013 10.7205 22.4725 11.1512 22.4725C11.582 22.4725 11.9952 22.3013 12.2998 21.9967C12.6044 21.6921 12.7755 21.279 12.7755 20.8482V19.224ZM19.224 19.224V20.8482C19.224 21.279 19.3951 21.6921 19.6997 21.9967C20.0043 22.3013 20.4174 22.4725 20.8482 22.4725C21.279 22.4725 21.6921 22.3013 21.9967 21.9967C22.3013 21.6921 22.4725 21.279 22.4725 20.8482C22.4725 20.4174 22.3013 20.0043 21.9967 19.6997C21.6921 19.3951 21.279 19.224 20.8482 19.224H19.224ZM19.224 12.7755H20.8482C21.279 12.7755 21.6921 12.6044 21.9967 12.2998C22.3013 11.9952 22.4725 11.582 22.4725 11.1512C22.4725 10.7205 22.3013 10.3073 21.9967 10.0027C21.6921 9.69813 21.279 9.527 20.8482 9.527C20.4174 9.527 20.0043 9.69813 19.6997 10.0027C19.3951 10.3073 19.224 10.7205 19.224 11.1512V12.7755Z" fill="#83AD32"/>
</g>
</svg>
