<svg width="32" height="32" viewBox="0 0 32 32" fill="none" xmlns="http://www.w3.org/2000/svg">
<g id="Group 1336522544">
<path id="Rectangle 1459" d="M0 7.46667C0 3.34294 3.34294 0 7.46667 0H24.5333C28.6571 0 32 3.34294 32 7.46667V24.5333C32 28.6571 28.6571 32 24.5333 32H7.46667C3.34294 32 0 28.6571 0 24.5333V7.46667Z" fill="#F3F8EB"/>
<path id="Vector (Stroke)" fill-rule="evenodd" clip-rule="evenodd" d="M9.73871 12.9631C9.29277 13.8809 9.04263 14.9113 9.04263 16.0002C9.04263 16.8074 9.18007 17.5824 9.43284 18.3032H12.8224L11.7334 16.4174C11.7268 16.4065 11.7204 16.3955 11.7143 16.3843L9.73871 12.9631ZM9.07179 10.9763C8.04701 12.3871 7.44263 14.1231 7.44263 16.0002C7.44263 17.1989 7.6891 18.3401 8.13414 19.3758C8.1458 19.408 8.15946 19.4392 8.17497 19.4693C9.37543 22.1731 11.9362 24.1391 14.9886 24.4986C15.0245 24.5051 15.0606 24.5091 15.0966 24.5106C15.3936 24.5418 15.695 24.5578 16.0002 24.5578C18.7974 24.5578 21.2811 23.2157 22.8426 21.1404C22.875 21.1041 22.9037 21.0651 22.9286 21.0241C23.9534 19.6133 24.5578 17.8773 24.5578 16.0002C24.5578 14.8015 24.3113 13.6603 23.8663 12.6246C23.8546 12.5924 23.841 12.5612 23.8254 12.5311C22.625 9.82726 20.0642 7.86128 17.0118 7.50179C16.9759 7.49529 16.9398 7.4913 16.9038 7.48976C16.6068 7.4586 16.3054 7.44263 16.0002 7.44263C13.203 7.44263 10.7193 8.78468 9.15776 10.86C9.12538 10.8964 9.09668 10.9353 9.07179 10.9763ZM10.7222 11.4667L12.4163 14.4003L13.511 12.5046C13.5136 12.5 13.5162 12.4954 13.5189 12.4909L15.4999 9.06034C13.5919 9.1959 11.8965 10.1009 10.7222 11.4667ZM17.289 9.16175L15.5939 12.0972H17.7769C17.7866 12.097 17.7963 12.097 17.8061 12.0972H21.7607C20.7393 10.5925 19.1438 9.50915 17.289 9.16175ZM22.5676 13.6972H19.178L20.267 15.583C20.2736 15.5939 20.28 15.6049 20.2861 15.6161L22.2617 19.0373C22.7076 18.1195 22.9578 17.0891 22.9578 16.0002C22.9578 15.193 22.8203 14.418 22.5676 13.6972ZM21.2782 20.5337L19.5841 17.6001L18.4894 19.4959C18.4868 19.5004 18.4842 19.505 18.4815 19.5095L16.5005 22.9401C18.4085 22.8045 20.1039 21.8995 21.2782 20.5337ZM14.7114 22.8386L16.4065 19.9032H14.2236C14.2138 19.9034 14.2041 19.9034 14.1943 19.9032H10.2397C11.2611 21.4079 12.8566 22.4913 14.7114 22.8386ZM14.67 18.3032H17.3305L18.6603 16.0003L17.3304 13.6972H14.6699L13.3401 16.0001L14.67 18.3032Z" fill="#83AD32"/>
</g>
</svg>
