<svg width="32" height="32" viewBox="0 0 32 32" fill="none" xmlns="http://www.w3.org/2000/svg">
<g id="Group 1336522545">
<path id="Rectangle 1460" d="M0 7.46667C0 3.34294 3.34294 0 7.46667 0H24.5333C28.6571 0 32 3.34294 32 7.46667V24.5333C32 28.6571 28.6571 32 24.5333 32H7.46667C3.34294 32 0 28.6571 0 24.5333V7.46667Z" fill="#F3F8EB"/>
<path id="Vector (Stroke)" fill-rule="evenodd" clip-rule="evenodd" d="M15.6608 8.00263C15.876 7.90179 16.1248 7.90179 16.3399 8.00263L24.0975 11.639C24.3785 11.7707 24.558 12.053 24.558 12.3634C24.558 12.6737 24.3785 12.956 24.0975 13.0877L16.3399 16.7241C16.1248 16.8249 15.876 16.8249 15.6608 16.7241L7.90327 13.0877C7.62228 12.956 7.44282 12.6737 7.44282 12.3634C7.44282 12.053 7.62228 11.7707 7.90327 11.639L15.6608 8.00263ZM10.1277 12.3634L16.0004 15.1162L21.8731 12.3634L16.0004 9.61053L10.1277 12.3634ZM7.51845 15.6602C7.70598 15.2601 8.18231 15.0878 8.58236 15.2754L16.0004 18.7526L23.4184 15.2754C23.8185 15.0878 24.2948 15.2601 24.4823 15.6602C24.6699 16.0602 24.4976 16.5366 24.0975 16.7241L16.3399 20.3605C16.1248 20.4613 15.876 20.4613 15.6608 20.3605L7.90327 16.7241C7.50321 16.5366 7.33092 16.0602 7.51845 15.6602ZM7.51845 19.2965C7.70598 18.8965 8.18231 18.7242 8.58236 18.9117L16.0004 22.3889L23.4184 18.9117C23.8185 18.7242 24.2948 18.8965 24.4823 19.2965C24.6699 19.6966 24.4976 20.1729 24.0975 20.3605L16.3399 23.9968C16.1248 24.0977 15.876 24.0977 15.6608 23.9968L7.90327 20.3605C7.50321 20.1729 7.33092 19.6966 7.51845 19.2965Z" fill="#83AD32"/>
</g>
</svg>
