<svg width="32" height="32" viewBox="0 0 32 32" fill="none" xmlns="http://www.w3.org/2000/svg">
<g id="Group 1336522546">
<path id="Rectangle 1477" d="M0 7.46667C0 3.34294 3.34294 0 7.46667 0H24.5333C28.6571 0 32 3.34294 32 7.46667V24.5333C32 28.6571 28.6571 32 24.5333 32H7.46667C3.34294 32 0 28.6571 0 24.5333V7.46667Z" fill="#F3F8EB"/>
<path id="Vector (Stroke)" fill-rule="evenodd" clip-rule="evenodd" d="M15.7576 8.89697C16.1994 8.89697 16.5576 9.25514 16.5576 9.69697V22.303C16.5576 22.7449 16.1994 23.103 15.7576 23.103C15.3158 23.103 14.9576 22.7449 14.9576 22.303V9.69697C14.9576 9.25514 15.3158 8.89697 15.7576 8.89697ZM21.8182 13.6242C22.26 13.6242 22.6182 13.9824 22.6182 14.4242V22.303C22.6182 22.7449 22.26 23.103 21.8182 23.103C21.3764 23.103 21.0182 22.7449 21.0182 22.303V14.4242C21.0182 13.9824 21.3764 13.6242 21.8182 13.6242ZM9.69697 16.7758C10.1388 16.7758 10.497 17.1339 10.497 17.5758V22.303C10.497 22.7449 10.1388 23.103 9.69697 23.103C9.25514 23.103 8.89697 22.7449 8.89697 22.303V17.5758C8.89697 17.1339 9.25514 16.7758 9.69697 16.7758Z" fill="#83AD32"/>
</g>
</svg>
